<mxfile host="app.diagrams.net" modified="2021-03-14T11:56:03.684Z" agent="5.0 (Windows NT 10.0; Win64; x64) AppleWebKit/537.36 (KHTML, like Gecko) Chrome/89.0.4389.82 Safari/537.36" etag="4iRuoWPUD6AK8yr2VV4n" version="14.4.8" type="github">
  <diagram id="tkTSZ3Rhq634pnoqI6xr" name="Page-1">
    <mxGraphModel dx="2222" dy="1162" grid="1" gridSize="10" guides="1" tooltips="1" connect="1" arrows="1" fold="1" page="0" pageScale="1" pageWidth="1169" pageHeight="827" background="none" math="0" shadow="0">
      <root>
        <mxCell id="0" />
        <mxCell id="1" parent="0" />
        <mxCell id="uHUNbpHlDxS1nG46DtAX-1" value="Users" style="shape=table;startSize=30;container=1;collapsible=1;childLayout=tableLayout;fixedRows=1;rowLines=0;fontStyle=1;align=center;resizeLast=1;" vertex="1" parent="1">
          <mxGeometry x="400" y="40" width="200" height="480" as="geometry" />
        </mxCell>
        <mxCell id="uHUNbpHlDxS1nG46DtAX-2" value="" style="shape=partialRectangle;collapsible=0;dropTarget=0;pointerEvents=0;fillColor=none;top=0;left=0;bottom=1;right=0;points=[[0,0.5],[1,0.5]];portConstraint=eastwest;" vertex="1" parent="uHUNbpHlDxS1nG46DtAX-1">
          <mxGeometry y="30" width="200" height="30" as="geometry" />
        </mxCell>
        <mxCell id="uHUNbpHlDxS1nG46DtAX-3" value="PK" style="shape=partialRectangle;connectable=0;fillColor=none;top=0;left=0;bottom=0;right=0;fontStyle=1;overflow=hidden;" vertex="1" parent="uHUNbpHlDxS1nG46DtAX-2">
          <mxGeometry width="30" height="30" as="geometry" />
        </mxCell>
        <mxCell id="uHUNbpHlDxS1nG46DtAX-4" value="UserID" style="shape=partialRectangle;connectable=0;fillColor=none;top=0;left=0;bottom=0;right=0;align=left;spacingLeft=6;fontStyle=5;overflow=hidden;" vertex="1" parent="uHUNbpHlDxS1nG46DtAX-2">
          <mxGeometry x="30" width="170" height="30" as="geometry" />
        </mxCell>
        <mxCell id="uHUNbpHlDxS1nG46DtAX-5" value="" style="shape=partialRectangle;collapsible=0;dropTarget=0;pointerEvents=0;fillColor=none;top=0;left=0;bottom=0;right=0;points=[[0,0.5],[1,0.5]];portConstraint=eastwest;" vertex="1" parent="uHUNbpHlDxS1nG46DtAX-1">
          <mxGeometry y="60" width="200" height="30" as="geometry" />
        </mxCell>
        <mxCell id="uHUNbpHlDxS1nG46DtAX-6" value="" style="shape=partialRectangle;connectable=0;fillColor=none;top=0;left=0;bottom=0;right=0;editable=1;overflow=hidden;" vertex="1" parent="uHUNbpHlDxS1nG46DtAX-5">
          <mxGeometry width="30" height="30" as="geometry" />
        </mxCell>
        <mxCell id="uHUNbpHlDxS1nG46DtAX-7" value="displayName(nvarchar(15))" style="shape=partialRectangle;connectable=0;fillColor=none;top=0;left=0;bottom=0;right=0;align=left;spacingLeft=6;overflow=hidden;" vertex="1" parent="uHUNbpHlDxS1nG46DtAX-5">
          <mxGeometry x="30" width="170" height="30" as="geometry" />
        </mxCell>
        <mxCell id="uHUNbpHlDxS1nG46DtAX-8" value="" style="shape=partialRectangle;collapsible=0;dropTarget=0;pointerEvents=0;fillColor=none;top=0;left=0;bottom=0;right=0;points=[[0,0.5],[1,0.5]];portConstraint=eastwest;" vertex="1" parent="uHUNbpHlDxS1nG46DtAX-1">
          <mxGeometry y="90" width="200" height="30" as="geometry" />
        </mxCell>
        <mxCell id="uHUNbpHlDxS1nG46DtAX-9" value="" style="shape=partialRectangle;connectable=0;fillColor=none;top=0;left=0;bottom=0;right=0;editable=1;overflow=hidden;" vertex="1" parent="uHUNbpHlDxS1nG46DtAX-8">
          <mxGeometry width="30" height="30" as="geometry" />
        </mxCell>
        <mxCell id="uHUNbpHlDxS1nG46DtAX-10" value="firstName(nvarchar(15))" style="shape=partialRectangle;connectable=0;fillColor=none;top=0;left=0;bottom=0;right=0;align=left;spacingLeft=6;overflow=hidden;" vertex="1" parent="uHUNbpHlDxS1nG46DtAX-8">
          <mxGeometry x="30" width="170" height="30" as="geometry" />
        </mxCell>
        <mxCell id="uHUNbpHlDxS1nG46DtAX-11" value="" style="shape=partialRectangle;collapsible=0;dropTarget=0;pointerEvents=0;fillColor=none;top=0;left=0;bottom=0;right=0;points=[[0,0.5],[1,0.5]];portConstraint=eastwest;" vertex="1" parent="uHUNbpHlDxS1nG46DtAX-1">
          <mxGeometry y="120" width="200" height="30" as="geometry" />
        </mxCell>
        <mxCell id="uHUNbpHlDxS1nG46DtAX-12" value="" style="shape=partialRectangle;connectable=0;fillColor=none;top=0;left=0;bottom=0;right=0;editable=1;overflow=hidden;" vertex="1" parent="uHUNbpHlDxS1nG46DtAX-11">
          <mxGeometry width="30" height="30" as="geometry" />
        </mxCell>
        <mxCell id="uHUNbpHlDxS1nG46DtAX-13" value="lastName(nvarchar(15))" style="shape=partialRectangle;connectable=0;fillColor=none;top=0;left=0;bottom=0;right=0;align=left;spacingLeft=6;overflow=hidden;" vertex="1" parent="uHUNbpHlDxS1nG46DtAX-11">
          <mxGeometry x="30" width="170" height="30" as="geometry" />
        </mxCell>
        <mxCell id="uHUNbpHlDxS1nG46DtAX-15" value="" style="shape=partialRectangle;collapsible=0;dropTarget=0;pointerEvents=0;fillColor=none;top=0;left=0;bottom=0;right=0;points=[[0,0.5],[1,0.5]];portConstraint=eastwest;" vertex="1" parent="uHUNbpHlDxS1nG46DtAX-1">
          <mxGeometry y="150" width="200" height="30" as="geometry" />
        </mxCell>
        <mxCell id="uHUNbpHlDxS1nG46DtAX-16" value="" style="shape=partialRectangle;connectable=0;fillColor=none;top=0;left=0;bottom=0;right=0;editable=1;overflow=hidden;" vertex="1" parent="uHUNbpHlDxS1nG46DtAX-15">
          <mxGeometry width="30" height="30" as="geometry" />
        </mxCell>
        <mxCell id="uHUNbpHlDxS1nG46DtAX-17" value="email(nvarchar(35))" style="shape=partialRectangle;connectable=0;fillColor=none;top=0;left=0;bottom=0;right=0;align=left;spacingLeft=6;overflow=hidden;" vertex="1" parent="uHUNbpHlDxS1nG46DtAX-15">
          <mxGeometry x="30" width="170" height="30" as="geometry" />
        </mxCell>
        <mxCell id="uHUNbpHlDxS1nG46DtAX-34" value="" style="shape=partialRectangle;collapsible=0;dropTarget=0;pointerEvents=0;fillColor=none;top=0;left=0;bottom=0;right=0;points=[[0,0.5],[1,0.5]];portConstraint=eastwest;" vertex="1" parent="uHUNbpHlDxS1nG46DtAX-1">
          <mxGeometry y="180" width="200" height="30" as="geometry" />
        </mxCell>
        <mxCell id="uHUNbpHlDxS1nG46DtAX-35" value="" style="shape=partialRectangle;connectable=0;fillColor=none;top=0;left=0;bottom=0;right=0;editable=1;overflow=hidden;" vertex="1" parent="uHUNbpHlDxS1nG46DtAX-34">
          <mxGeometry width="30" height="30" as="geometry" />
        </mxCell>
        <mxCell id="uHUNbpHlDxS1nG46DtAX-36" value="phone(nvarchar(25))" style="shape=partialRectangle;connectable=0;fillColor=none;top=0;left=0;bottom=0;right=0;align=left;spacingLeft=6;overflow=hidden;" vertex="1" parent="uHUNbpHlDxS1nG46DtAX-34">
          <mxGeometry x="30" width="170" height="30" as="geometry" />
        </mxCell>
        <mxCell id="uHUNbpHlDxS1nG46DtAX-37" value="" style="shape=partialRectangle;collapsible=0;dropTarget=0;pointerEvents=0;fillColor=none;top=0;left=0;bottom=0;right=0;points=[[0,0.5],[1,0.5]];portConstraint=eastwest;" vertex="1" parent="uHUNbpHlDxS1nG46DtAX-1">
          <mxGeometry y="210" width="200" height="30" as="geometry" />
        </mxCell>
        <mxCell id="uHUNbpHlDxS1nG46DtAX-38" value="" style="shape=partialRectangle;connectable=0;fillColor=none;top=0;left=0;bottom=0;right=0;editable=1;overflow=hidden;" vertex="1" parent="uHUNbpHlDxS1nG46DtAX-37">
          <mxGeometry width="30" height="30" as="geometry" />
        </mxCell>
        <mxCell id="uHUNbpHlDxS1nG46DtAX-39" value="country (nvarchar(15))" style="shape=partialRectangle;connectable=0;fillColor=none;top=0;left=0;bottom=0;right=0;align=left;spacingLeft=6;overflow=hidden;" vertex="1" parent="uHUNbpHlDxS1nG46DtAX-37">
          <mxGeometry x="30" width="170" height="30" as="geometry" />
        </mxCell>
        <mxCell id="uHUNbpHlDxS1nG46DtAX-46" value="" style="shape=partialRectangle;collapsible=0;dropTarget=0;pointerEvents=0;fillColor=none;top=0;left=0;bottom=0;right=0;points=[[0,0.5],[1,0.5]];portConstraint=eastwest;" vertex="1" parent="uHUNbpHlDxS1nG46DtAX-1">
          <mxGeometry y="240" width="200" height="30" as="geometry" />
        </mxCell>
        <mxCell id="uHUNbpHlDxS1nG46DtAX-47" value="" style="shape=partialRectangle;connectable=0;fillColor=none;top=0;left=0;bottom=0;right=0;editable=1;overflow=hidden;" vertex="1" parent="uHUNbpHlDxS1nG46DtAX-46">
          <mxGeometry width="30" height="30" as="geometry" />
        </mxCell>
        <mxCell id="uHUNbpHlDxS1nG46DtAX-48" value="city(nvarchar(15))" style="shape=partialRectangle;connectable=0;fillColor=none;top=0;left=0;bottom=0;right=0;align=left;spacingLeft=6;overflow=hidden;" vertex="1" parent="uHUNbpHlDxS1nG46DtAX-46">
          <mxGeometry x="30" width="170" height="30" as="geometry" />
        </mxCell>
        <mxCell id="uHUNbpHlDxS1nG46DtAX-99" value="" style="shape=partialRectangle;collapsible=0;dropTarget=0;pointerEvents=0;fillColor=none;top=0;left=0;bottom=0;right=0;points=[[0,0.5],[1,0.5]];portConstraint=eastwest;" vertex="1" parent="uHUNbpHlDxS1nG46DtAX-1">
          <mxGeometry y="270" width="200" height="30" as="geometry" />
        </mxCell>
        <mxCell id="uHUNbpHlDxS1nG46DtAX-100" value="" style="shape=partialRectangle;connectable=0;fillColor=none;top=0;left=0;bottom=0;right=0;editable=1;overflow=hidden;" vertex="1" parent="uHUNbpHlDxS1nG46DtAX-99">
          <mxGeometry width="30" height="30" as="geometry" />
        </mxCell>
        <mxCell id="uHUNbpHlDxS1nG46DtAX-101" value="street(nvarchar(15))" style="shape=partialRectangle;connectable=0;fillColor=none;top=0;left=0;bottom=0;right=0;align=left;spacingLeft=6;overflow=hidden;" vertex="1" parent="uHUNbpHlDxS1nG46DtAX-99">
          <mxGeometry x="30" width="170" height="30" as="geometry" />
        </mxCell>
        <mxCell id="uHUNbpHlDxS1nG46DtAX-102" value="" style="shape=partialRectangle;collapsible=0;dropTarget=0;pointerEvents=0;fillColor=none;top=0;left=0;bottom=0;right=0;points=[[0,0.5],[1,0.5]];portConstraint=eastwest;" vertex="1" parent="uHUNbpHlDxS1nG46DtAX-1">
          <mxGeometry y="300" width="200" height="30" as="geometry" />
        </mxCell>
        <mxCell id="uHUNbpHlDxS1nG46DtAX-103" value="" style="shape=partialRectangle;connectable=0;fillColor=none;top=0;left=0;bottom=0;right=0;editable=1;overflow=hidden;" vertex="1" parent="uHUNbpHlDxS1nG46DtAX-102">
          <mxGeometry width="30" height="30" as="geometry" />
        </mxCell>
        <mxCell id="uHUNbpHlDxS1nG46DtAX-104" value="houseNumber(nvarchar(5))" style="shape=partialRectangle;connectable=0;fillColor=none;top=0;left=0;bottom=0;right=0;align=left;spacingLeft=6;overflow=hidden;" vertex="1" parent="uHUNbpHlDxS1nG46DtAX-102">
          <mxGeometry x="30" width="170" height="30" as="geometry" />
        </mxCell>
        <mxCell id="uHUNbpHlDxS1nG46DtAX-105" value="" style="shape=partialRectangle;collapsible=0;dropTarget=0;pointerEvents=0;fillColor=none;top=0;left=0;bottom=0;right=0;points=[[0,0.5],[1,0.5]];portConstraint=eastwest;" vertex="1" parent="uHUNbpHlDxS1nG46DtAX-1">
          <mxGeometry y="330" width="200" height="30" as="geometry" />
        </mxCell>
        <mxCell id="uHUNbpHlDxS1nG46DtAX-106" value="" style="shape=partialRectangle;connectable=0;fillColor=none;top=0;left=0;bottom=0;right=0;editable=1;overflow=hidden;" vertex="1" parent="uHUNbpHlDxS1nG46DtAX-105">
          <mxGeometry width="30" height="30" as="geometry" />
        </mxCell>
        <mxCell id="uHUNbpHlDxS1nG46DtAX-107" value="" style="shape=partialRectangle;connectable=0;fillColor=none;top=0;left=0;bottom=0;right=0;align=left;spacingLeft=6;overflow=hidden;" vertex="1" parent="uHUNbpHlDxS1nG46DtAX-105">
          <mxGeometry x="30" width="170" height="30" as="geometry" />
        </mxCell>
        <mxCell id="uHUNbpHlDxS1nG46DtAX-108" value="" style="shape=partialRectangle;collapsible=0;dropTarget=0;pointerEvents=0;fillColor=none;top=0;left=0;bottom=0;right=0;points=[[0,0.5],[1,0.5]];portConstraint=eastwest;" vertex="1" parent="uHUNbpHlDxS1nG46DtAX-1">
          <mxGeometry y="360" width="200" height="30" as="geometry" />
        </mxCell>
        <mxCell id="uHUNbpHlDxS1nG46DtAX-109" value="" style="shape=partialRectangle;connectable=0;fillColor=none;top=0;left=0;bottom=0;right=0;editable=1;overflow=hidden;" vertex="1" parent="uHUNbpHlDxS1nG46DtAX-108">
          <mxGeometry width="30" height="30" as="geometry" />
        </mxCell>
        <mxCell id="uHUNbpHlDxS1nG46DtAX-110" value="" style="shape=partialRectangle;connectable=0;fillColor=none;top=0;left=0;bottom=0;right=0;align=left;spacingLeft=6;overflow=hidden;" vertex="1" parent="uHUNbpHlDxS1nG46DtAX-108">
          <mxGeometry x="30" width="170" height="30" as="geometry" />
        </mxCell>
        <mxCell id="uHUNbpHlDxS1nG46DtAX-111" value="" style="shape=partialRectangle;collapsible=0;dropTarget=0;pointerEvents=0;fillColor=none;top=0;left=0;bottom=0;right=0;points=[[0,0.5],[1,0.5]];portConstraint=eastwest;" vertex="1" parent="uHUNbpHlDxS1nG46DtAX-1">
          <mxGeometry y="390" width="200" height="30" as="geometry" />
        </mxCell>
        <mxCell id="uHUNbpHlDxS1nG46DtAX-112" value="" style="shape=partialRectangle;connectable=0;fillColor=none;top=0;left=0;bottom=0;right=0;editable=1;overflow=hidden;" vertex="1" parent="uHUNbpHlDxS1nG46DtAX-111">
          <mxGeometry width="30" height="30" as="geometry" />
        </mxCell>
        <mxCell id="uHUNbpHlDxS1nG46DtAX-113" value="active(bit)" style="shape=partialRectangle;connectable=0;fillColor=none;top=0;left=0;bottom=0;right=0;align=left;spacingLeft=6;overflow=hidden;" vertex="1" parent="uHUNbpHlDxS1nG46DtAX-111">
          <mxGeometry x="30" width="170" height="30" as="geometry" />
        </mxCell>
        <mxCell id="uHUNbpHlDxS1nG46DtAX-114" value="" style="shape=partialRectangle;collapsible=0;dropTarget=0;pointerEvents=0;fillColor=none;top=0;left=0;bottom=0;right=0;points=[[0,0.5],[1,0.5]];portConstraint=eastwest;" vertex="1" parent="uHUNbpHlDxS1nG46DtAX-1">
          <mxGeometry y="420" width="200" height="30" as="geometry" />
        </mxCell>
        <mxCell id="uHUNbpHlDxS1nG46DtAX-115" value="FK" style="shape=partialRectangle;connectable=0;fillColor=none;top=0;left=0;bottom=0;right=0;editable=1;overflow=hidden;" vertex="1" parent="uHUNbpHlDxS1nG46DtAX-114">
          <mxGeometry width="30" height="30" as="geometry" />
        </mxCell>
        <mxCell id="uHUNbpHlDxS1nG46DtAX-116" value="roleId(int)" style="shape=partialRectangle;connectable=0;fillColor=none;top=0;left=0;bottom=0;right=0;align=left;spacingLeft=6;overflow=hidden;" vertex="1" parent="uHUNbpHlDxS1nG46DtAX-114">
          <mxGeometry x="30" width="170" height="30" as="geometry" />
        </mxCell>
        <mxCell id="uHUNbpHlDxS1nG46DtAX-117" value="" style="shape=partialRectangle;collapsible=0;dropTarget=0;pointerEvents=0;fillColor=none;top=0;left=0;bottom=0;right=0;points=[[0,0.5],[1,0.5]];portConstraint=eastwest;" vertex="1" parent="uHUNbpHlDxS1nG46DtAX-1">
          <mxGeometry y="450" width="200" height="30" as="geometry" />
        </mxCell>
        <mxCell id="uHUNbpHlDxS1nG46DtAX-118" value="" style="shape=partialRectangle;connectable=0;fillColor=none;top=0;left=0;bottom=0;right=0;editable=1;overflow=hidden;" vertex="1" parent="uHUNbpHlDxS1nG46DtAX-117">
          <mxGeometry width="30" height="30" as="geometry" />
        </mxCell>
        <mxCell id="uHUNbpHlDxS1nG46DtAX-119" value="" style="shape=partialRectangle;connectable=0;fillColor=none;top=0;left=0;bottom=0;right=0;align=left;spacingLeft=6;overflow=hidden;" vertex="1" parent="uHUNbpHlDxS1nG46DtAX-117">
          <mxGeometry x="30" width="170" height="30" as="geometry" />
        </mxCell>
        <mxCell id="uHUNbpHlDxS1nG46DtAX-120" value="Orders" style="shape=table;startSize=30;container=1;collapsible=1;childLayout=tableLayout;fixedRows=1;rowLines=0;fontStyle=1;align=center;resizeLast=1;" vertex="1" parent="1">
          <mxGeometry x="-140" y="-5" width="200" height="560" as="geometry" />
        </mxCell>
        <mxCell id="uHUNbpHlDxS1nG46DtAX-121" value="" style="shape=partialRectangle;collapsible=0;dropTarget=0;pointerEvents=0;fillColor=none;top=0;left=0;bottom=1;right=0;points=[[0,0.5],[1,0.5]];portConstraint=eastwest;" vertex="1" parent="uHUNbpHlDxS1nG46DtAX-120">
          <mxGeometry y="30" width="200" height="30" as="geometry" />
        </mxCell>
        <mxCell id="uHUNbpHlDxS1nG46DtAX-122" value="PK" style="shape=partialRectangle;connectable=0;fillColor=none;top=0;left=0;bottom=0;right=0;fontStyle=1;overflow=hidden;" vertex="1" parent="uHUNbpHlDxS1nG46DtAX-121">
          <mxGeometry width="30" height="30" as="geometry" />
        </mxCell>
        <mxCell id="uHUNbpHlDxS1nG46DtAX-123" value="OrderID(int)" style="shape=partialRectangle;connectable=0;fillColor=none;top=0;left=0;bottom=0;right=0;align=left;spacingLeft=6;fontStyle=5;overflow=hidden;" vertex="1" parent="uHUNbpHlDxS1nG46DtAX-121">
          <mxGeometry x="30" width="170" height="30" as="geometry" />
        </mxCell>
        <mxCell id="uHUNbpHlDxS1nG46DtAX-124" value="" style="shape=partialRectangle;collapsible=0;dropTarget=0;pointerEvents=0;fillColor=none;top=0;left=0;bottom=0;right=0;points=[[0,0.5],[1,0.5]];portConstraint=eastwest;" vertex="1" parent="uHUNbpHlDxS1nG46DtAX-120">
          <mxGeometry y="60" width="200" height="30" as="geometry" />
        </mxCell>
        <mxCell id="uHUNbpHlDxS1nG46DtAX-125" value="" style="shape=partialRectangle;connectable=0;fillColor=none;top=0;left=0;bottom=0;right=0;editable=1;overflow=hidden;" vertex="1" parent="uHUNbpHlDxS1nG46DtAX-124">
          <mxGeometry width="30" height="30" as="geometry" />
        </mxCell>
        <mxCell id="uHUNbpHlDxS1nG46DtAX-126" value="orderDate((datetime))" style="shape=partialRectangle;connectable=0;fillColor=none;top=0;left=0;bottom=0;right=0;align=left;spacingLeft=6;overflow=hidden;" vertex="1" parent="uHUNbpHlDxS1nG46DtAX-124">
          <mxGeometry x="30" width="170" height="30" as="geometry" />
        </mxCell>
        <mxCell id="uHUNbpHlDxS1nG46DtAX-127" value="" style="shape=partialRectangle;collapsible=0;dropTarget=0;pointerEvents=0;fillColor=none;top=0;left=0;bottom=0;right=0;points=[[0,0.5],[1,0.5]];portConstraint=eastwest;" vertex="1" parent="uHUNbpHlDxS1nG46DtAX-120">
          <mxGeometry y="90" width="200" height="30" as="geometry" />
        </mxCell>
        <mxCell id="uHUNbpHlDxS1nG46DtAX-128" value="" style="shape=partialRectangle;connectable=0;fillColor=none;top=0;left=0;bottom=0;right=0;editable=1;overflow=hidden;" vertex="1" parent="uHUNbpHlDxS1nG46DtAX-127">
          <mxGeometry width="30" height="30" as="geometry" />
        </mxCell>
        <mxCell id="uHUNbpHlDxS1nG46DtAX-129" value="billFirstName(nvarchar(15))" style="shape=partialRectangle;connectable=0;fillColor=none;top=0;left=0;bottom=0;right=0;align=left;spacingLeft=6;overflow=hidden;" vertex="1" parent="uHUNbpHlDxS1nG46DtAX-127">
          <mxGeometry x="30" width="170" height="30" as="geometry" />
        </mxCell>
        <mxCell id="uHUNbpHlDxS1nG46DtAX-130" value="" style="shape=partialRectangle;collapsible=0;dropTarget=0;pointerEvents=0;fillColor=none;top=0;left=0;bottom=0;right=0;points=[[0,0.5],[1,0.5]];portConstraint=eastwest;" vertex="1" parent="uHUNbpHlDxS1nG46DtAX-120">
          <mxGeometry y="120" width="200" height="30" as="geometry" />
        </mxCell>
        <mxCell id="uHUNbpHlDxS1nG46DtAX-131" value="" style="shape=partialRectangle;connectable=0;fillColor=none;top=0;left=0;bottom=0;right=0;editable=1;overflow=hidden;" vertex="1" parent="uHUNbpHlDxS1nG46DtAX-130">
          <mxGeometry width="30" height="30" as="geometry" />
        </mxCell>
        <mxCell id="uHUNbpHlDxS1nG46DtAX-132" value="billLastName(nvarchar(15))" style="shape=partialRectangle;connectable=0;fillColor=none;top=0;left=0;bottom=0;right=0;align=left;spacingLeft=6;overflow=hidden;" vertex="1" parent="uHUNbpHlDxS1nG46DtAX-130">
          <mxGeometry x="30" width="170" height="30" as="geometry" />
        </mxCell>
        <mxCell id="uHUNbpHlDxS1nG46DtAX-170" value="" style="shape=partialRectangle;collapsible=0;dropTarget=0;pointerEvents=0;fillColor=none;top=0;left=0;bottom=0;right=0;points=[[0,0.5],[1,0.5]];portConstraint=eastwest;" vertex="1" parent="uHUNbpHlDxS1nG46DtAX-120">
          <mxGeometry y="150" width="200" height="30" as="geometry" />
        </mxCell>
        <mxCell id="uHUNbpHlDxS1nG46DtAX-171" value="" style="shape=partialRectangle;connectable=0;fillColor=none;top=0;left=0;bottom=0;right=0;editable=1;overflow=hidden;" vertex="1" parent="uHUNbpHlDxS1nG46DtAX-170">
          <mxGeometry width="30" height="30" as="geometry" />
        </mxCell>
        <mxCell id="uHUNbpHlDxS1nG46DtAX-172" value="billEmail(nvarchar(15))" style="shape=partialRectangle;connectable=0;fillColor=none;top=0;left=0;bottom=0;right=0;align=left;spacingLeft=6;overflow=hidden;" vertex="1" parent="uHUNbpHlDxS1nG46DtAX-170">
          <mxGeometry x="30" width="170" height="30" as="geometry" />
        </mxCell>
        <mxCell id="uHUNbpHlDxS1nG46DtAX-174" value="" style="shape=partialRectangle;collapsible=0;dropTarget=0;pointerEvents=0;fillColor=none;top=0;left=0;bottom=0;right=0;points=[[0,0.5],[1,0.5]];portConstraint=eastwest;" vertex="1" parent="uHUNbpHlDxS1nG46DtAX-120">
          <mxGeometry y="180" width="200" height="30" as="geometry" />
        </mxCell>
        <mxCell id="uHUNbpHlDxS1nG46DtAX-175" value="" style="shape=partialRectangle;connectable=0;fillColor=none;top=0;left=0;bottom=0;right=0;editable=1;overflow=hidden;" vertex="1" parent="uHUNbpHlDxS1nG46DtAX-174">
          <mxGeometry width="30" height="30" as="geometry" />
        </mxCell>
        <mxCell id="uHUNbpHlDxS1nG46DtAX-176" value="billPhone(nvarchar(15))" style="shape=partialRectangle;connectable=0;fillColor=none;top=0;left=0;bottom=0;right=0;align=left;spacingLeft=6;overflow=hidden;" vertex="1" parent="uHUNbpHlDxS1nG46DtAX-174">
          <mxGeometry x="30" width="170" height="30" as="geometry" />
        </mxCell>
        <mxCell id="uHUNbpHlDxS1nG46DtAX-133" value="" style="shape=partialRectangle;collapsible=0;dropTarget=0;pointerEvents=0;fillColor=none;top=0;left=0;bottom=0;right=0;points=[[0,0.5],[1,0.5]];portConstraint=eastwest;" vertex="1" parent="uHUNbpHlDxS1nG46DtAX-120">
          <mxGeometry y="210" width="200" height="30" as="geometry" />
        </mxCell>
        <mxCell id="uHUNbpHlDxS1nG46DtAX-134" value="" style="shape=partialRectangle;connectable=0;fillColor=none;top=0;left=0;bottom=0;right=0;editable=1;overflow=hidden;" vertex="1" parent="uHUNbpHlDxS1nG46DtAX-133">
          <mxGeometry width="30" height="30" as="geometry" />
        </mxCell>
        <mxCell id="uHUNbpHlDxS1nG46DtAX-135" value="shipCountry (nvarchar(15))" style="shape=partialRectangle;connectable=0;fillColor=none;top=0;left=0;bottom=0;right=0;align=left;spacingLeft=6;overflow=hidden;" vertex="1" parent="uHUNbpHlDxS1nG46DtAX-133">
          <mxGeometry x="30" width="170" height="30" as="geometry" />
        </mxCell>
        <mxCell id="uHUNbpHlDxS1nG46DtAX-136" value="" style="shape=partialRectangle;collapsible=0;dropTarget=0;pointerEvents=0;fillColor=none;top=0;left=0;bottom=0;right=0;points=[[0,0.5],[1,0.5]];portConstraint=eastwest;" vertex="1" parent="uHUNbpHlDxS1nG46DtAX-120">
          <mxGeometry y="240" width="200" height="30" as="geometry" />
        </mxCell>
        <mxCell id="uHUNbpHlDxS1nG46DtAX-137" value="" style="shape=partialRectangle;connectable=0;fillColor=none;top=0;left=0;bottom=0;right=0;editable=1;overflow=hidden;" vertex="1" parent="uHUNbpHlDxS1nG46DtAX-136">
          <mxGeometry width="30" height="30" as="geometry" />
        </mxCell>
        <mxCell id="uHUNbpHlDxS1nG46DtAX-138" value="shipCity(nvarchar(80))" style="shape=partialRectangle;connectable=0;fillColor=none;top=0;left=0;bottom=0;right=0;align=left;spacingLeft=6;overflow=hidden;" vertex="1" parent="uHUNbpHlDxS1nG46DtAX-136">
          <mxGeometry x="30" width="170" height="30" as="geometry" />
        </mxCell>
        <mxCell id="uHUNbpHlDxS1nG46DtAX-139" value="" style="shape=partialRectangle;collapsible=0;dropTarget=0;pointerEvents=0;fillColor=none;top=0;left=0;bottom=0;right=0;points=[[0,0.5],[1,0.5]];portConstraint=eastwest;" vertex="1" parent="uHUNbpHlDxS1nG46DtAX-120">
          <mxGeometry y="270" width="200" height="30" as="geometry" />
        </mxCell>
        <mxCell id="uHUNbpHlDxS1nG46DtAX-140" value="" style="shape=partialRectangle;connectable=0;fillColor=none;top=0;left=0;bottom=0;right=0;editable=1;overflow=hidden;" vertex="1" parent="uHUNbpHlDxS1nG46DtAX-139">
          <mxGeometry width="30" height="30" as="geometry" />
        </mxCell>
        <mxCell id="uHUNbpHlDxS1nG46DtAX-141" value="shipStreet(nvarchar(15))" style="shape=partialRectangle;connectable=0;fillColor=none;top=0;left=0;bottom=0;right=0;align=left;spacingLeft=6;overflow=hidden;" vertex="1" parent="uHUNbpHlDxS1nG46DtAX-139">
          <mxGeometry x="30" width="170" height="30" as="geometry" />
        </mxCell>
        <mxCell id="uHUNbpHlDxS1nG46DtAX-142" value="" style="shape=partialRectangle;collapsible=0;dropTarget=0;pointerEvents=0;fillColor=none;top=0;left=0;bottom=0;right=0;points=[[0,0.5],[1,0.5]];portConstraint=eastwest;" vertex="1" parent="uHUNbpHlDxS1nG46DtAX-120">
          <mxGeometry y="300" width="200" height="30" as="geometry" />
        </mxCell>
        <mxCell id="uHUNbpHlDxS1nG46DtAX-143" value="" style="shape=partialRectangle;connectable=0;fillColor=none;top=0;left=0;bottom=0;right=0;editable=1;overflow=hidden;" vertex="1" parent="uHUNbpHlDxS1nG46DtAX-142">
          <mxGeometry width="30" height="30" as="geometry" />
        </mxCell>
        <mxCell id="uHUNbpHlDxS1nG46DtAX-144" value="shipHouseNumber(nvarchar(15))" style="shape=partialRectangle;connectable=0;fillColor=none;top=0;left=0;bottom=0;right=0;align=left;spacingLeft=6;overflow=hidden;" vertex="1" parent="uHUNbpHlDxS1nG46DtAX-142">
          <mxGeometry x="30" width="170" height="30" as="geometry" />
        </mxCell>
        <mxCell id="uHUNbpHlDxS1nG46DtAX-145" value="" style="shape=partialRectangle;collapsible=0;dropTarget=0;pointerEvents=0;fillColor=none;top=0;left=0;bottom=0;right=0;points=[[0,0.5],[1,0.5]];portConstraint=eastwest;" vertex="1" parent="uHUNbpHlDxS1nG46DtAX-120">
          <mxGeometry y="330" width="200" height="30" as="geometry" />
        </mxCell>
        <mxCell id="uHUNbpHlDxS1nG46DtAX-146" value="" style="shape=partialRectangle;connectable=0;fillColor=none;top=0;left=0;bottom=0;right=0;editable=1;overflow=hidden;" vertex="1" parent="uHUNbpHlDxS1nG46DtAX-145">
          <mxGeometry width="30" height="30" as="geometry" />
        </mxCell>
        <mxCell id="uHUNbpHlDxS1nG46DtAX-147" value="zip(nvarchar(15))" style="shape=partialRectangle;connectable=0;fillColor=none;top=0;left=0;bottom=0;right=0;align=left;spacingLeft=6;overflow=hidden;" vertex="1" parent="uHUNbpHlDxS1nG46DtAX-145">
          <mxGeometry x="30" width="170" height="30" as="geometry" />
        </mxCell>
        <mxCell id="uHUNbpHlDxS1nG46DtAX-148" value="" style="shape=partialRectangle;collapsible=0;dropTarget=0;pointerEvents=0;fillColor=none;top=0;left=0;bottom=0;right=0;points=[[0,0.5],[1,0.5]];portConstraint=eastwest;" vertex="1" parent="uHUNbpHlDxS1nG46DtAX-120">
          <mxGeometry y="360" width="200" height="30" as="geometry" />
        </mxCell>
        <mxCell id="uHUNbpHlDxS1nG46DtAX-149" value="" style="shape=partialRectangle;connectable=0;fillColor=none;top=0;left=0;bottom=0;right=0;editable=1;overflow=hidden;" vertex="1" parent="uHUNbpHlDxS1nG46DtAX-148">
          <mxGeometry width="30" height="30" as="geometry" />
        </mxCell>
        <mxCell id="uHUNbpHlDxS1nG46DtAX-150" value="" style="shape=partialRectangle;connectable=0;fillColor=none;top=0;left=0;bottom=0;right=0;align=left;spacingLeft=6;overflow=hidden;" vertex="1" parent="uHUNbpHlDxS1nG46DtAX-148">
          <mxGeometry x="30" width="170" height="30" as="geometry" />
        </mxCell>
        <mxCell id="uHUNbpHlDxS1nG46DtAX-154" value="" style="shape=partialRectangle;collapsible=0;dropTarget=0;pointerEvents=0;fillColor=none;top=0;left=0;bottom=0;right=0;points=[[0,0.5],[1,0.5]];portConstraint=eastwest;" vertex="1" parent="uHUNbpHlDxS1nG46DtAX-120">
          <mxGeometry y="390" width="200" height="30" as="geometry" />
        </mxCell>
        <mxCell id="uHUNbpHlDxS1nG46DtAX-155" value="" style="shape=partialRectangle;connectable=0;fillColor=none;top=0;left=0;bottom=0;right=0;editable=1;overflow=hidden;" vertex="1" parent="uHUNbpHlDxS1nG46DtAX-154">
          <mxGeometry width="30" height="30" as="geometry" />
        </mxCell>
        <mxCell id="uHUNbpHlDxS1nG46DtAX-156" value="shippingMethod(nvarchar(15))" style="shape=partialRectangle;connectable=0;fillColor=none;top=0;left=0;bottom=0;right=0;align=left;spacingLeft=6;overflow=hidden;" vertex="1" parent="uHUNbpHlDxS1nG46DtAX-154">
          <mxGeometry x="30" width="170" height="30" as="geometry" />
        </mxCell>
        <mxCell id="uHUNbpHlDxS1nG46DtAX-151" value="" style="shape=partialRectangle;collapsible=0;dropTarget=0;pointerEvents=0;fillColor=none;top=0;left=0;bottom=0;right=0;points=[[0,0.5],[1,0.5]];portConstraint=eastwest;" vertex="1" parent="uHUNbpHlDxS1nG46DtAX-120">
          <mxGeometry y="420" width="200" height="30" as="geometry" />
        </mxCell>
        <mxCell id="uHUNbpHlDxS1nG46DtAX-152" value="" style="shape=partialRectangle;connectable=0;fillColor=none;top=0;left=0;bottom=0;right=0;editable=1;overflow=hidden;" vertex="1" parent="uHUNbpHlDxS1nG46DtAX-151">
          <mxGeometry width="30" height="30" as="geometry" />
        </mxCell>
        <mxCell id="uHUNbpHlDxS1nG46DtAX-153" value="" style="shape=partialRectangle;connectable=0;fillColor=none;top=0;left=0;bottom=0;right=0;align=left;spacingLeft=6;overflow=hidden;" vertex="1" parent="uHUNbpHlDxS1nG46DtAX-151">
          <mxGeometry x="30" width="170" height="30" as="geometry" />
        </mxCell>
        <mxCell id="uHUNbpHlDxS1nG46DtAX-157" value="" style="shape=partialRectangle;collapsible=0;dropTarget=0;pointerEvents=0;fillColor=none;top=0;left=0;bottom=0;right=0;points=[[0,0.5],[1,0.5]];portConstraint=eastwest;" vertex="1" parent="uHUNbpHlDxS1nG46DtAX-120">
          <mxGeometry y="450" width="200" height="30" as="geometry" />
        </mxCell>
        <mxCell id="uHUNbpHlDxS1nG46DtAX-158" value="" style="shape=partialRectangle;connectable=0;fillColor=none;top=0;left=0;bottom=0;right=0;editable=1;overflow=hidden;" vertex="1" parent="uHUNbpHlDxS1nG46DtAX-157">
          <mxGeometry width="30" height="30" as="geometry" />
        </mxCell>
        <mxCell id="uHUNbpHlDxS1nG46DtAX-159" value="" style="shape=partialRectangle;connectable=0;fillColor=none;top=0;left=0;bottom=0;right=0;align=left;spacingLeft=6;overflow=hidden;" vertex="1" parent="uHUNbpHlDxS1nG46DtAX-157">
          <mxGeometry x="30" width="170" height="30" as="geometry" />
        </mxCell>
        <mxCell id="uHUNbpHlDxS1nG46DtAX-167" value="" style="shape=partialRectangle;collapsible=0;dropTarget=0;pointerEvents=0;fillColor=none;top=0;left=0;bottom=0;right=0;points=[[0,0.5],[1,0.5]];portConstraint=eastwest;" vertex="1" parent="uHUNbpHlDxS1nG46DtAX-120">
          <mxGeometry y="480" width="200" height="20" as="geometry" />
        </mxCell>
        <mxCell id="uHUNbpHlDxS1nG46DtAX-168" value="" style="shape=partialRectangle;connectable=0;fillColor=none;top=0;left=0;bottom=0;right=0;editable=1;overflow=hidden;" vertex="1" parent="uHUNbpHlDxS1nG46DtAX-167">
          <mxGeometry width="30" height="20" as="geometry" />
        </mxCell>
        <mxCell id="uHUNbpHlDxS1nG46DtAX-169" value="" style="shape=partialRectangle;connectable=0;fillColor=none;top=0;left=0;bottom=0;right=0;align=left;spacingLeft=6;overflow=hidden;" vertex="1" parent="uHUNbpHlDxS1nG46DtAX-167">
          <mxGeometry x="30" width="170" height="20" as="geometry" />
        </mxCell>
        <mxCell id="uHUNbpHlDxS1nG46DtAX-163" value="" style="shape=partialRectangle;collapsible=0;dropTarget=0;pointerEvents=0;fillColor=none;top=0;left=0;bottom=0;right=0;points=[[0,0.5],[1,0.5]];portConstraint=eastwest;" vertex="1" parent="uHUNbpHlDxS1nG46DtAX-120">
          <mxGeometry y="500" width="200" height="30" as="geometry" />
        </mxCell>
        <mxCell id="uHUNbpHlDxS1nG46DtAX-164" value="Fk" style="shape=partialRectangle;connectable=0;fillColor=none;top=0;left=0;bottom=0;right=0;editable=1;overflow=hidden;" vertex="1" parent="uHUNbpHlDxS1nG46DtAX-163">
          <mxGeometry width="30" height="30" as="geometry" />
        </mxCell>
        <mxCell id="uHUNbpHlDxS1nG46DtAX-165" value="couponId(int)" style="shape=partialRectangle;connectable=0;fillColor=none;top=0;left=0;bottom=0;right=0;align=left;spacingLeft=6;overflow=hidden;" vertex="1" parent="uHUNbpHlDxS1nG46DtAX-163">
          <mxGeometry x="30" width="170" height="30" as="geometry" />
        </mxCell>
        <mxCell id="uHUNbpHlDxS1nG46DtAX-160" value="" style="shape=partialRectangle;collapsible=0;dropTarget=0;pointerEvents=0;fillColor=none;top=0;left=0;bottom=0;right=0;points=[[0,0.5],[1,0.5]];portConstraint=eastwest;" vertex="1" parent="uHUNbpHlDxS1nG46DtAX-120">
          <mxGeometry y="530" width="200" height="30" as="geometry" />
        </mxCell>
        <mxCell id="uHUNbpHlDxS1nG46DtAX-161" value="FK" style="shape=partialRectangle;connectable=0;fillColor=none;top=0;left=0;bottom=0;right=0;editable=1;overflow=hidden;" vertex="1" parent="uHUNbpHlDxS1nG46DtAX-160">
          <mxGeometry width="30" height="30" as="geometry" />
        </mxCell>
        <mxCell id="uHUNbpHlDxS1nG46DtAX-162" value="UserID(int)" style="shape=partialRectangle;connectable=0;fillColor=none;top=0;left=0;bottom=0;right=0;align=left;spacingLeft=6;overflow=hidden;" vertex="1" parent="uHUNbpHlDxS1nG46DtAX-160">
          <mxGeometry x="30" width="170" height="30" as="geometry" />
        </mxCell>
        <mxCell id="uHUNbpHlDxS1nG46DtAX-166" value="" style="edgeStyle=entityRelationEdgeStyle;fontSize=12;html=1;endArrow=ERmany;" edge="1" parent="1" source="uHUNbpHlDxS1nG46DtAX-2" target="uHUNbpHlDxS1nG46DtAX-160">
          <mxGeometry width="100" height="100" relative="1" as="geometry">
            <mxPoint x="570" y="410" as="sourcePoint" />
            <mxPoint x="670" y="310" as="targetPoint" />
          </mxGeometry>
        </mxCell>
        <mxCell id="uHUNbpHlDxS1nG46DtAX-173" value="shippingStatus(nvarchar(15))" style="shape=partialRectangle;connectable=0;fillColor=none;top=0;left=0;bottom=0;right=0;align=left;spacingLeft=6;overflow=hidden;" vertex="1" parent="1">
          <mxGeometry x="-120" y="440" width="170" height="30" as="geometry" />
        </mxCell>
        <mxCell id="uHUNbpHlDxS1nG46DtAX-177" value="OrderDetails" style="shape=table;startSize=50;container=1;collapsible=1;childLayout=tableLayout;fixedRows=1;rowLines=0;fontStyle=1;align=center;resizeLast=1;" vertex="1" parent="1">
          <mxGeometry x="-500" y="570" width="240" height="200" as="geometry" />
        </mxCell>
        <mxCell id="uHUNbpHlDxS1nG46DtAX-178" value="" style="shape=partialRectangle;collapsible=0;dropTarget=0;pointerEvents=0;fillColor=none;top=0;left=0;bottom=1;right=0;points=[[0,0.5],[1,0.5]];portConstraint=eastwest;" vertex="1" parent="uHUNbpHlDxS1nG46DtAX-177">
          <mxGeometry y="50" width="240" height="30" as="geometry" />
        </mxCell>
        <mxCell id="uHUNbpHlDxS1nG46DtAX-179" value="PK, FK" style="shape=partialRectangle;connectable=0;fillColor=none;top=0;left=0;bottom=0;right=0;fontStyle=1;overflow=hidden;" vertex="1" parent="uHUNbpHlDxS1nG46DtAX-178">
          <mxGeometry width="50" height="30" as="geometry" />
        </mxCell>
        <mxCell id="uHUNbpHlDxS1nG46DtAX-180" value="OrderID(int)" style="shape=partialRectangle;connectable=0;fillColor=none;top=0;left=0;bottom=0;right=0;align=left;spacingLeft=6;fontStyle=5;overflow=hidden;" vertex="1" parent="uHUNbpHlDxS1nG46DtAX-178">
          <mxGeometry x="50" width="190" height="30" as="geometry" />
        </mxCell>
        <mxCell id="uHUNbpHlDxS1nG46DtAX-233" value="" style="shape=partialRectangle;collapsible=0;dropTarget=0;pointerEvents=0;fillColor=none;top=0;left=0;bottom=1;right=0;points=[[0,0.5],[1,0.5]];portConstraint=eastwest;" vertex="1" parent="uHUNbpHlDxS1nG46DtAX-177">
          <mxGeometry y="80" width="240" height="30" as="geometry" />
        </mxCell>
        <mxCell id="uHUNbpHlDxS1nG46DtAX-234" value="PK, FK" style="shape=partialRectangle;connectable=0;fillColor=none;top=0;left=0;bottom=0;right=0;fontStyle=1;overflow=hidden;" vertex="1" parent="uHUNbpHlDxS1nG46DtAX-233">
          <mxGeometry width="50" height="30" as="geometry" />
        </mxCell>
        <mxCell id="uHUNbpHlDxS1nG46DtAX-235" value="ItemID(int)" style="shape=partialRectangle;connectable=0;fillColor=none;top=0;left=0;bottom=0;right=0;align=left;spacingLeft=6;fontStyle=5;overflow=hidden;" vertex="1" parent="uHUNbpHlDxS1nG46DtAX-233">
          <mxGeometry x="50" width="190" height="30" as="geometry" />
        </mxCell>
        <mxCell id="uHUNbpHlDxS1nG46DtAX-181" value="" style="shape=partialRectangle;collapsible=0;dropTarget=0;pointerEvents=0;fillColor=none;top=0;left=0;bottom=0;right=0;points=[[0,0.5],[1,0.5]];portConstraint=eastwest;" vertex="1" parent="uHUNbpHlDxS1nG46DtAX-177">
          <mxGeometry y="110" width="240" height="30" as="geometry" />
        </mxCell>
        <mxCell id="uHUNbpHlDxS1nG46DtAX-182" value="" style="shape=partialRectangle;connectable=0;fillColor=none;top=0;left=0;bottom=0;right=0;editable=1;overflow=hidden;" vertex="1" parent="uHUNbpHlDxS1nG46DtAX-181">
          <mxGeometry width="50" height="30" as="geometry" />
        </mxCell>
        <mxCell id="uHUNbpHlDxS1nG46DtAX-183" value="quantity((int))" style="shape=partialRectangle;connectable=0;fillColor=none;top=0;left=0;bottom=0;right=0;align=left;spacingLeft=6;overflow=hidden;" vertex="1" parent="uHUNbpHlDxS1nG46DtAX-181">
          <mxGeometry x="50" width="190" height="30" as="geometry" />
        </mxCell>
        <mxCell id="uHUNbpHlDxS1nG46DtAX-184" value="" style="shape=partialRectangle;collapsible=0;dropTarget=0;pointerEvents=0;fillColor=none;top=0;left=0;bottom=0;right=0;points=[[0,0.5],[1,0.5]];portConstraint=eastwest;" vertex="1" parent="uHUNbpHlDxS1nG46DtAX-177">
          <mxGeometry y="140" width="240" height="30" as="geometry" />
        </mxCell>
        <mxCell id="uHUNbpHlDxS1nG46DtAX-185" value="" style="shape=partialRectangle;connectable=0;fillColor=none;top=0;left=0;bottom=0;right=0;editable=1;overflow=hidden;" vertex="1" parent="uHUNbpHlDxS1nG46DtAX-184">
          <mxGeometry width="50" height="30" as="geometry" />
        </mxCell>
        <mxCell id="uHUNbpHlDxS1nG46DtAX-186" value="total((int))" style="shape=partialRectangle;connectable=0;fillColor=none;top=0;left=0;bottom=0;right=0;align=left;spacingLeft=6;overflow=hidden;" vertex="1" parent="uHUNbpHlDxS1nG46DtAX-184">
          <mxGeometry x="50" width="190" height="30" as="geometry" />
        </mxCell>
        <mxCell id="uHUNbpHlDxS1nG46DtAX-187" value="" style="shape=partialRectangle;collapsible=0;dropTarget=0;pointerEvents=0;fillColor=none;top=0;left=0;bottom=0;right=0;points=[[0,0.5],[1,0.5]];portConstraint=eastwest;" vertex="1" parent="uHUNbpHlDxS1nG46DtAX-177">
          <mxGeometry y="170" width="240" height="30" as="geometry" />
        </mxCell>
        <mxCell id="uHUNbpHlDxS1nG46DtAX-188" value="" style="shape=partialRectangle;connectable=0;fillColor=none;top=0;left=0;bottom=0;right=0;editable=1;overflow=hidden;" vertex="1" parent="uHUNbpHlDxS1nG46DtAX-187">
          <mxGeometry width="50" height="30" as="geometry" />
        </mxCell>
        <mxCell id="uHUNbpHlDxS1nG46DtAX-189" value="" style="shape=partialRectangle;connectable=0;fillColor=none;top=0;left=0;bottom=0;right=0;align=left;spacingLeft=6;overflow=hidden;" vertex="1" parent="uHUNbpHlDxS1nG46DtAX-187">
          <mxGeometry x="50" width="190" height="30" as="geometry" />
        </mxCell>
        <mxCell id="uHUNbpHlDxS1nG46DtAX-232" value="" style="edgeStyle=entityRelationEdgeStyle;fontSize=12;html=1;endArrow=ERmany;" edge="1" parent="1" source="uHUNbpHlDxS1nG46DtAX-121" target="uHUNbpHlDxS1nG46DtAX-178">
          <mxGeometry width="100" height="100" relative="1" as="geometry">
            <mxPoint x="-100" y="520" as="sourcePoint" />
            <mxPoint x="-430" y="260" as="targetPoint" />
          </mxGeometry>
        </mxCell>
        <mxCell id="uHUNbpHlDxS1nG46DtAX-236" value="Items" style="shape=table;startSize=30;container=1;collapsible=1;childLayout=tableLayout;fixedRows=1;rowLines=0;fontStyle=1;align=center;resizeLast=1;" vertex="1" parent="1">
          <mxGeometry x="-80" y="660" width="200" height="470" as="geometry" />
        </mxCell>
        <mxCell id="uHUNbpHlDxS1nG46DtAX-237" value="" style="shape=partialRectangle;collapsible=0;dropTarget=0;pointerEvents=0;fillColor=none;top=0;left=0;bottom=1;right=0;points=[[0,0.5],[1,0.5]];portConstraint=eastwest;" vertex="1" parent="uHUNbpHlDxS1nG46DtAX-236">
          <mxGeometry y="30" width="200" height="30" as="geometry" />
        </mxCell>
        <mxCell id="uHUNbpHlDxS1nG46DtAX-238" value="PK" style="shape=partialRectangle;connectable=0;fillColor=none;top=0;left=0;bottom=0;right=0;fontStyle=1;overflow=hidden;" vertex="1" parent="uHUNbpHlDxS1nG46DtAX-237">
          <mxGeometry width="30" height="30" as="geometry" />
        </mxCell>
        <mxCell id="uHUNbpHlDxS1nG46DtAX-239" value="ItemID(int)" style="shape=partialRectangle;connectable=0;fillColor=none;top=0;left=0;bottom=0;right=0;align=left;spacingLeft=6;fontStyle=5;overflow=hidden;" vertex="1" parent="uHUNbpHlDxS1nG46DtAX-237">
          <mxGeometry x="30" width="170" height="30" as="geometry" />
        </mxCell>
        <mxCell id="uHUNbpHlDxS1nG46DtAX-240" value="" style="shape=partialRectangle;collapsible=0;dropTarget=0;pointerEvents=0;fillColor=none;top=0;left=0;bottom=0;right=0;points=[[0,0.5],[1,0.5]];portConstraint=eastwest;" vertex="1" parent="uHUNbpHlDxS1nG46DtAX-236">
          <mxGeometry y="60" width="200" height="30" as="geometry" />
        </mxCell>
        <mxCell id="uHUNbpHlDxS1nG46DtAX-241" value="" style="shape=partialRectangle;connectable=0;fillColor=none;top=0;left=0;bottom=0;right=0;editable=1;overflow=hidden;" vertex="1" parent="uHUNbpHlDxS1nG46DtAX-240">
          <mxGeometry width="30" height="30" as="geometry" />
        </mxCell>
        <mxCell id="uHUNbpHlDxS1nG46DtAX-242" value="name((nvarchar(15)))" style="shape=partialRectangle;connectable=0;fillColor=none;top=0;left=0;bottom=0;right=0;align=left;spacingLeft=6;overflow=hidden;" vertex="1" parent="uHUNbpHlDxS1nG46DtAX-240">
          <mxGeometry x="30" width="170" height="30" as="geometry" />
        </mxCell>
        <mxCell id="uHUNbpHlDxS1nG46DtAX-246" value="" style="shape=partialRectangle;collapsible=0;dropTarget=0;pointerEvents=0;fillColor=none;top=0;left=0;bottom=0;right=0;points=[[0,0.5],[1,0.5]];portConstraint=eastwest;" vertex="1" parent="uHUNbpHlDxS1nG46DtAX-236">
          <mxGeometry y="90" width="200" height="30" as="geometry" />
        </mxCell>
        <mxCell id="uHUNbpHlDxS1nG46DtAX-247" value="" style="shape=partialRectangle;connectable=0;fillColor=none;top=0;left=0;bottom=0;right=0;editable=1;overflow=hidden;" vertex="1" parent="uHUNbpHlDxS1nG46DtAX-246">
          <mxGeometry width="30" height="30" as="geometry" />
        </mxCell>
        <mxCell id="uHUNbpHlDxS1nG46DtAX-248" value="description (text)" style="shape=partialRectangle;connectable=0;fillColor=none;top=0;left=0;bottom=0;right=0;align=left;spacingLeft=6;overflow=hidden;" vertex="1" parent="uHUNbpHlDxS1nG46DtAX-246">
          <mxGeometry x="30" width="170" height="30" as="geometry" />
        </mxCell>
        <mxCell id="uHUNbpHlDxS1nG46DtAX-249" value="" style="shape=partialRectangle;collapsible=0;dropTarget=0;pointerEvents=0;fillColor=none;top=0;left=0;bottom=0;right=0;points=[[0,0.5],[1,0.5]];portConstraint=eastwest;" vertex="1" parent="uHUNbpHlDxS1nG46DtAX-236">
          <mxGeometry y="120" width="200" height="30" as="geometry" />
        </mxCell>
        <mxCell id="uHUNbpHlDxS1nG46DtAX-250" value="" style="shape=partialRectangle;connectable=0;fillColor=none;top=0;left=0;bottom=0;right=0;editable=1;overflow=hidden;" vertex="1" parent="uHUNbpHlDxS1nG46DtAX-249">
          <mxGeometry width="30" height="30" as="geometry" />
        </mxCell>
        <mxCell id="uHUNbpHlDxS1nG46DtAX-251" value="price((money))" style="shape=partialRectangle;connectable=0;fillColor=none;top=0;left=0;bottom=0;right=0;align=left;spacingLeft=6;overflow=hidden;" vertex="1" parent="uHUNbpHlDxS1nG46DtAX-249">
          <mxGeometry x="30" width="170" height="30" as="geometry" />
        </mxCell>
        <mxCell id="uHUNbpHlDxS1nG46DtAX-252" value="" style="shape=partialRectangle;collapsible=0;dropTarget=0;pointerEvents=0;fillColor=none;top=0;left=0;bottom=0;right=0;points=[[0,0.5],[1,0.5]];portConstraint=eastwest;" vertex="1" parent="uHUNbpHlDxS1nG46DtAX-236">
          <mxGeometry y="150" width="200" height="30" as="geometry" />
        </mxCell>
        <mxCell id="uHUNbpHlDxS1nG46DtAX-253" value="" style="shape=partialRectangle;connectable=0;fillColor=none;top=0;left=0;bottom=0;right=0;editable=1;overflow=hidden;" vertex="1" parent="uHUNbpHlDxS1nG46DtAX-252">
          <mxGeometry width="30" height="30" as="geometry" />
        </mxCell>
        <mxCell id="uHUNbpHlDxS1nG46DtAX-254" value="imgUrl(nvarchar(60))" style="shape=partialRectangle;connectable=0;fillColor=none;top=0;left=0;bottom=0;right=0;align=left;spacingLeft=6;overflow=hidden;" vertex="1" parent="uHUNbpHlDxS1nG46DtAX-252">
          <mxGeometry x="30" width="170" height="30" as="geometry" />
        </mxCell>
        <mxCell id="uHUNbpHlDxS1nG46DtAX-255" value="" style="shape=partialRectangle;collapsible=0;dropTarget=0;pointerEvents=0;fillColor=none;top=0;left=0;bottom=0;right=0;points=[[0,0.5],[1,0.5]];portConstraint=eastwest;" vertex="1" parent="uHUNbpHlDxS1nG46DtAX-236">
          <mxGeometry y="180" width="200" height="30" as="geometry" />
        </mxCell>
        <mxCell id="uHUNbpHlDxS1nG46DtAX-256" value="" style="shape=partialRectangle;connectable=0;fillColor=none;top=0;left=0;bottom=0;right=0;editable=1;overflow=hidden;" vertex="1" parent="uHUNbpHlDxS1nG46DtAX-255">
          <mxGeometry width="30" height="30" as="geometry" />
        </mxCell>
        <mxCell id="uHUNbpHlDxS1nG46DtAX-257" value="img1(nvarchar(60))" style="shape=partialRectangle;connectable=0;fillColor=none;top=0;left=0;bottom=0;right=0;align=left;spacingLeft=6;overflow=hidden;" vertex="1" parent="uHUNbpHlDxS1nG46DtAX-255">
          <mxGeometry x="30" width="170" height="30" as="geometry" />
        </mxCell>
        <mxCell id="uHUNbpHlDxS1nG46DtAX-258" value="" style="shape=partialRectangle;collapsible=0;dropTarget=0;pointerEvents=0;fillColor=none;top=0;left=0;bottom=0;right=0;points=[[0,0.5],[1,0.5]];portConstraint=eastwest;" vertex="1" parent="uHUNbpHlDxS1nG46DtAX-236">
          <mxGeometry y="210" width="200" height="30" as="geometry" />
        </mxCell>
        <mxCell id="uHUNbpHlDxS1nG46DtAX-259" value="" style="shape=partialRectangle;connectable=0;fillColor=none;top=0;left=0;bottom=0;right=0;editable=1;overflow=hidden;" vertex="1" parent="uHUNbpHlDxS1nG46DtAX-258">
          <mxGeometry width="30" height="30" as="geometry" />
        </mxCell>
        <mxCell id="uHUNbpHlDxS1nG46DtAX-260" value="img2(nvarchar(60))" style="shape=partialRectangle;connectable=0;fillColor=none;top=0;left=0;bottom=0;right=0;align=left;spacingLeft=6;overflow=hidden;" vertex="1" parent="uHUNbpHlDxS1nG46DtAX-258">
          <mxGeometry x="30" width="170" height="30" as="geometry" />
        </mxCell>
        <mxCell id="uHUNbpHlDxS1nG46DtAX-261" value="" style="shape=partialRectangle;collapsible=0;dropTarget=0;pointerEvents=0;fillColor=none;top=0;left=0;bottom=0;right=0;points=[[0,0.5],[1,0.5]];portConstraint=eastwest;" vertex="1" parent="uHUNbpHlDxS1nG46DtAX-236">
          <mxGeometry y="240" width="200" height="30" as="geometry" />
        </mxCell>
        <mxCell id="uHUNbpHlDxS1nG46DtAX-262" value="" style="shape=partialRectangle;connectable=0;fillColor=none;top=0;left=0;bottom=0;right=0;editable=1;overflow=hidden;" vertex="1" parent="uHUNbpHlDxS1nG46DtAX-261">
          <mxGeometry width="30" height="30" as="geometry" />
        </mxCell>
        <mxCell id="uHUNbpHlDxS1nG46DtAX-263" value="amoutInStock(int)" style="shape=partialRectangle;connectable=0;fillColor=none;top=0;left=0;bottom=0;right=0;align=left;spacingLeft=6;overflow=hidden;" vertex="1" parent="uHUNbpHlDxS1nG46DtAX-261">
          <mxGeometry x="30" width="170" height="30" as="geometry" />
        </mxCell>
        <mxCell id="uHUNbpHlDxS1nG46DtAX-264" value="" style="shape=partialRectangle;collapsible=0;dropTarget=0;pointerEvents=0;fillColor=none;top=0;left=0;bottom=0;right=0;points=[[0,0.5],[1,0.5]];portConstraint=eastwest;" vertex="1" parent="uHUNbpHlDxS1nG46DtAX-236">
          <mxGeometry y="270" width="200" height="30" as="geometry" />
        </mxCell>
        <mxCell id="uHUNbpHlDxS1nG46DtAX-265" value="" style="shape=partialRectangle;connectable=0;fillColor=none;top=0;left=0;bottom=0;right=0;editable=1;overflow=hidden;" vertex="1" parent="uHUNbpHlDxS1nG46DtAX-264">
          <mxGeometry width="30" height="30" as="geometry" />
        </mxCell>
        <mxCell id="uHUNbpHlDxS1nG46DtAX-266" value="rating(tinyInt)" style="shape=partialRectangle;connectable=0;fillColor=none;top=0;left=0;bottom=0;right=0;align=left;spacingLeft=6;overflow=hidden;" vertex="1" parent="uHUNbpHlDxS1nG46DtAX-264">
          <mxGeometry x="30" width="170" height="30" as="geometry" />
        </mxCell>
        <mxCell id="uHUNbpHlDxS1nG46DtAX-291" value="" style="shape=partialRectangle;collapsible=0;dropTarget=0;pointerEvents=0;fillColor=none;top=0;left=0;bottom=0;right=0;points=[[0,0.5],[1,0.5]];portConstraint=eastwest;" vertex="1" parent="uHUNbpHlDxS1nG46DtAX-236">
          <mxGeometry y="300" width="200" height="30" as="geometry" />
        </mxCell>
        <mxCell id="uHUNbpHlDxS1nG46DtAX-292" value="" style="shape=partialRectangle;connectable=0;fillColor=none;top=0;left=0;bottom=0;right=0;editable=1;overflow=hidden;" vertex="1" parent="uHUNbpHlDxS1nG46DtAX-291">
          <mxGeometry width="30" height="30" as="geometry" />
        </mxCell>
        <mxCell id="uHUNbpHlDxS1nG46DtAX-293" value="" style="shape=partialRectangle;connectable=0;fillColor=none;top=0;left=0;bottom=0;right=0;align=left;spacingLeft=6;overflow=hidden;" vertex="1" parent="uHUNbpHlDxS1nG46DtAX-291">
          <mxGeometry x="30" width="170" height="30" as="geometry" />
        </mxCell>
        <mxCell id="uHUNbpHlDxS1nG46DtAX-267" value="" style="shape=partialRectangle;collapsible=0;dropTarget=0;pointerEvents=0;fillColor=none;top=0;left=0;bottom=0;right=0;points=[[0,0.5],[1,0.5]];portConstraint=eastwest;" vertex="1" parent="uHUNbpHlDxS1nG46DtAX-236">
          <mxGeometry y="330" width="200" height="30" as="geometry" />
        </mxCell>
        <mxCell id="uHUNbpHlDxS1nG46DtAX-268" value="" style="shape=partialRectangle;connectable=0;fillColor=none;top=0;left=0;bottom=0;right=0;editable=1;overflow=hidden;" vertex="1" parent="uHUNbpHlDxS1nG46DtAX-267">
          <mxGeometry width="30" height="30" as="geometry" />
        </mxCell>
        <mxCell id="uHUNbpHlDxS1nG46DtAX-269" value="discount(tinyInt)" style="shape=partialRectangle;connectable=0;fillColor=none;top=0;left=0;bottom=0;right=0;align=left;spacingLeft=6;overflow=hidden;" vertex="1" parent="uHUNbpHlDxS1nG46DtAX-267">
          <mxGeometry x="30" width="170" height="30" as="geometry" />
        </mxCell>
        <mxCell id="uHUNbpHlDxS1nG46DtAX-311" value="" style="shape=partialRectangle;collapsible=0;dropTarget=0;pointerEvents=0;fillColor=none;top=0;left=0;bottom=0;right=0;points=[[0,0.5],[1,0.5]];portConstraint=eastwest;" vertex="1" parent="uHUNbpHlDxS1nG46DtAX-236">
          <mxGeometry y="360" width="200" height="30" as="geometry" />
        </mxCell>
        <mxCell id="uHUNbpHlDxS1nG46DtAX-312" value="" style="shape=partialRectangle;connectable=0;fillColor=none;top=0;left=0;bottom=0;right=0;editable=1;overflow=hidden;" vertex="1" parent="uHUNbpHlDxS1nG46DtAX-311">
          <mxGeometry width="30" height="30" as="geometry" />
        </mxCell>
        <mxCell id="uHUNbpHlDxS1nG46DtAX-313" value="" style="shape=partialRectangle;connectable=0;fillColor=none;top=0;left=0;bottom=0;right=0;align=left;spacingLeft=6;overflow=hidden;" vertex="1" parent="uHUNbpHlDxS1nG46DtAX-311">
          <mxGeometry x="30" width="170" height="30" as="geometry" />
        </mxCell>
        <mxCell id="uHUNbpHlDxS1nG46DtAX-270" value="" style="shape=partialRectangle;collapsible=0;dropTarget=0;pointerEvents=0;fillColor=none;top=0;left=0;bottom=0;right=0;points=[[0,0.5],[1,0.5]];portConstraint=eastwest;" vertex="1" parent="uHUNbpHlDxS1nG46DtAX-236">
          <mxGeometry y="390" width="200" height="20" as="geometry" />
        </mxCell>
        <mxCell id="uHUNbpHlDxS1nG46DtAX-271" value="" style="shape=partialRectangle;connectable=0;fillColor=none;top=0;left=0;bottom=0;right=0;editable=1;overflow=hidden;" vertex="1" parent="uHUNbpHlDxS1nG46DtAX-270">
          <mxGeometry width="30" height="20" as="geometry" />
        </mxCell>
        <mxCell id="uHUNbpHlDxS1nG46DtAX-272" value="" style="shape=partialRectangle;connectable=0;fillColor=none;top=0;left=0;bottom=0;right=0;align=left;spacingLeft=6;overflow=hidden;" vertex="1" parent="uHUNbpHlDxS1nG46DtAX-270">
          <mxGeometry x="30" width="170" height="20" as="geometry" />
        </mxCell>
        <mxCell id="uHUNbpHlDxS1nG46DtAX-273" value="" style="shape=partialRectangle;collapsible=0;dropTarget=0;pointerEvents=0;fillColor=none;top=0;left=0;bottom=0;right=0;points=[[0,0.5],[1,0.5]];portConstraint=eastwest;" vertex="1" parent="uHUNbpHlDxS1nG46DtAX-236">
          <mxGeometry y="410" width="200" height="30" as="geometry" />
        </mxCell>
        <mxCell id="uHUNbpHlDxS1nG46DtAX-274" value="" style="shape=partialRectangle;connectable=0;fillColor=none;top=0;left=0;bottom=0;right=0;editable=1;overflow=hidden;" vertex="1" parent="uHUNbpHlDxS1nG46DtAX-273">
          <mxGeometry width="30" height="30" as="geometry" />
        </mxCell>
        <mxCell id="uHUNbpHlDxS1nG46DtAX-275" value="" style="shape=partialRectangle;connectable=0;fillColor=none;top=0;left=0;bottom=0;right=0;align=left;spacingLeft=6;overflow=hidden;" vertex="1" parent="uHUNbpHlDxS1nG46DtAX-273">
          <mxGeometry x="30" width="170" height="30" as="geometry" />
        </mxCell>
        <mxCell id="uHUNbpHlDxS1nG46DtAX-318" value="" style="shape=partialRectangle;collapsible=0;dropTarget=0;pointerEvents=0;fillColor=none;top=0;left=0;bottom=0;right=0;points=[[0,0.5],[1,0.5]];portConstraint=eastwest;" vertex="1" parent="uHUNbpHlDxS1nG46DtAX-236">
          <mxGeometry y="440" width="200" height="30" as="geometry" />
        </mxCell>
        <mxCell id="uHUNbpHlDxS1nG46DtAX-319" value="FK" style="shape=partialRectangle;connectable=0;fillColor=none;top=0;left=0;bottom=0;right=0;editable=1;overflow=hidden;" vertex="1" parent="uHUNbpHlDxS1nG46DtAX-318">
          <mxGeometry width="30" height="30" as="geometry" />
        </mxCell>
        <mxCell id="uHUNbpHlDxS1nG46DtAX-320" value="CategoryID(int)" style="shape=partialRectangle;connectable=0;fillColor=none;top=0;left=0;bottom=0;right=0;align=left;spacingLeft=6;overflow=hidden;" vertex="1" parent="uHUNbpHlDxS1nG46DtAX-318">
          <mxGeometry x="30" width="170" height="30" as="geometry" />
        </mxCell>
        <mxCell id="uHUNbpHlDxS1nG46DtAX-294" value="" style="edgeStyle=entityRelationEdgeStyle;fontSize=12;html=1;endArrow=ERoneToMany;entryX=1;entryY=0.5;entryDx=0;entryDy=0;" edge="1" parent="1" source="uHUNbpHlDxS1nG46DtAX-237" target="uHUNbpHlDxS1nG46DtAX-233">
          <mxGeometry width="100" height="100" relative="1" as="geometry">
            <mxPoint x="-100" y="710" as="sourcePoint" />
            <mxPoint x="-210" y="710" as="targetPoint" />
          </mxGeometry>
        </mxCell>
        <mxCell id="uHUNbpHlDxS1nG46DtAX-295" value="Categories " style="shape=table;startSize=50;container=1;collapsible=1;childLayout=tableLayout;fixedRows=1;rowLines=0;fontStyle=1;align=center;resizeLast=1;" vertex="1" parent="1">
          <mxGeometry x="-450" y="930" width="240" height="200" as="geometry" />
        </mxCell>
        <mxCell id="uHUNbpHlDxS1nG46DtAX-296" value="" style="shape=partialRectangle;collapsible=0;dropTarget=0;pointerEvents=0;fillColor=none;top=0;left=0;bottom=1;right=0;points=[[0,0.5],[1,0.5]];portConstraint=eastwest;" vertex="1" parent="uHUNbpHlDxS1nG46DtAX-295">
          <mxGeometry y="50" width="240" height="30" as="geometry" />
        </mxCell>
        <mxCell id="uHUNbpHlDxS1nG46DtAX-297" value="PK" style="shape=partialRectangle;connectable=0;fillColor=none;top=0;left=0;bottom=0;right=0;fontStyle=1;overflow=hidden;" vertex="1" parent="uHUNbpHlDxS1nG46DtAX-296">
          <mxGeometry width="50" height="30" as="geometry" />
        </mxCell>
        <mxCell id="uHUNbpHlDxS1nG46DtAX-298" value="CategoryID(int)" style="shape=partialRectangle;connectable=0;fillColor=none;top=0;left=0;bottom=0;right=0;align=left;spacingLeft=6;fontStyle=5;overflow=hidden;" vertex="1" parent="uHUNbpHlDxS1nG46DtAX-296">
          <mxGeometry x="50" width="190" height="30" as="geometry" />
        </mxCell>
        <mxCell id="uHUNbpHlDxS1nG46DtAX-299" value="" style="shape=partialRectangle;collapsible=0;dropTarget=0;pointerEvents=0;fillColor=none;top=0;left=0;bottom=1;right=0;points=[[0,0.5],[1,0.5]];portConstraint=eastwest;" vertex="1" parent="uHUNbpHlDxS1nG46DtAX-295">
          <mxGeometry y="80" width="240" height="30" as="geometry" />
        </mxCell>
        <mxCell id="uHUNbpHlDxS1nG46DtAX-300" value="" style="shape=partialRectangle;connectable=0;fillColor=none;top=0;left=0;bottom=0;right=0;fontStyle=1;overflow=hidden;" vertex="1" parent="uHUNbpHlDxS1nG46DtAX-299">
          <mxGeometry width="50" height="30" as="geometry" />
        </mxCell>
        <mxCell id="uHUNbpHlDxS1nG46DtAX-301" value="" style="shape=partialRectangle;connectable=0;fillColor=none;top=0;left=0;bottom=0;right=0;align=left;spacingLeft=6;fontStyle=5;overflow=hidden;" vertex="1" parent="uHUNbpHlDxS1nG46DtAX-299">
          <mxGeometry x="50" width="190" height="30" as="geometry" />
        </mxCell>
        <mxCell id="uHUNbpHlDxS1nG46DtAX-302" value="" style="shape=partialRectangle;collapsible=0;dropTarget=0;pointerEvents=0;fillColor=none;top=0;left=0;bottom=0;right=0;points=[[0,0.5],[1,0.5]];portConstraint=eastwest;" vertex="1" parent="uHUNbpHlDxS1nG46DtAX-295">
          <mxGeometry y="110" width="240" height="30" as="geometry" />
        </mxCell>
        <mxCell id="uHUNbpHlDxS1nG46DtAX-303" value="" style="shape=partialRectangle;connectable=0;fillColor=none;top=0;left=0;bottom=0;right=0;editable=1;overflow=hidden;" vertex="1" parent="uHUNbpHlDxS1nG46DtAX-302">
          <mxGeometry width="50" height="30" as="geometry" />
        </mxCell>
        <mxCell id="uHUNbpHlDxS1nG46DtAX-304" value="Category Name(((nvarchar(25))))" style="shape=partialRectangle;connectable=0;fillColor=none;top=0;left=0;bottom=0;right=0;align=left;spacingLeft=6;overflow=hidden;" vertex="1" parent="uHUNbpHlDxS1nG46DtAX-302">
          <mxGeometry x="50" width="190" height="30" as="geometry" />
        </mxCell>
        <mxCell id="uHUNbpHlDxS1nG46DtAX-305" value="" style="shape=partialRectangle;collapsible=0;dropTarget=0;pointerEvents=0;fillColor=none;top=0;left=0;bottom=0;right=0;points=[[0,0.5],[1,0.5]];portConstraint=eastwest;" vertex="1" parent="uHUNbpHlDxS1nG46DtAX-295">
          <mxGeometry y="140" width="240" height="30" as="geometry" />
        </mxCell>
        <mxCell id="uHUNbpHlDxS1nG46DtAX-306" value="" style="shape=partialRectangle;connectable=0;fillColor=none;top=0;left=0;bottom=0;right=0;editable=1;overflow=hidden;" vertex="1" parent="uHUNbpHlDxS1nG46DtAX-305">
          <mxGeometry width="50" height="30" as="geometry" />
        </mxCell>
        <mxCell id="uHUNbpHlDxS1nG46DtAX-307" value="" style="shape=partialRectangle;connectable=0;fillColor=none;top=0;left=0;bottom=0;right=0;align=left;spacingLeft=6;overflow=hidden;" vertex="1" parent="uHUNbpHlDxS1nG46DtAX-305">
          <mxGeometry x="50" width="190" height="30" as="geometry" />
        </mxCell>
        <mxCell id="uHUNbpHlDxS1nG46DtAX-308" value="" style="shape=partialRectangle;collapsible=0;dropTarget=0;pointerEvents=0;fillColor=none;top=0;left=0;bottom=0;right=0;points=[[0,0.5],[1,0.5]];portConstraint=eastwest;" vertex="1" parent="uHUNbpHlDxS1nG46DtAX-295">
          <mxGeometry y="170" width="240" height="30" as="geometry" />
        </mxCell>
        <mxCell id="uHUNbpHlDxS1nG46DtAX-309" value="" style="shape=partialRectangle;connectable=0;fillColor=none;top=0;left=0;bottom=0;right=0;editable=1;overflow=hidden;" vertex="1" parent="uHUNbpHlDxS1nG46DtAX-308">
          <mxGeometry width="50" height="30" as="geometry" />
        </mxCell>
        <mxCell id="uHUNbpHlDxS1nG46DtAX-310" value="" style="shape=partialRectangle;connectable=0;fillColor=none;top=0;left=0;bottom=0;right=0;align=left;spacingLeft=6;overflow=hidden;" vertex="1" parent="uHUNbpHlDxS1nG46DtAX-308">
          <mxGeometry x="50" width="190" height="30" as="geometry" />
        </mxCell>
        <mxCell id="uHUNbpHlDxS1nG46DtAX-321" value="" style="edgeStyle=entityRelationEdgeStyle;fontSize=12;html=1;endArrow=ERoneToMany;entryX=0;entryY=0.5;entryDx=0;entryDy=0;exitX=1;exitY=0.5;exitDx=0;exitDy=0;" edge="1" parent="1" source="uHUNbpHlDxS1nG46DtAX-296" target="uHUNbpHlDxS1nG46DtAX-318">
          <mxGeometry width="100" height="100" relative="1" as="geometry">
            <mxPoint x="-100" y="990" as="sourcePoint" />
            <mxPoint y="890" as="targetPoint" />
          </mxGeometry>
        </mxCell>
        <mxCell id="uHUNbpHlDxS1nG46DtAX-323" value="Roles" style="shape=table;startSize=30;container=1;collapsible=1;childLayout=tableLayout;fixedRows=1;rowLines=0;fontStyle=1;align=center;resizeLast=1;" vertex="1" parent="1">
          <mxGeometry x="410" y="670" width="200" height="90" as="geometry" />
        </mxCell>
        <mxCell id="uHUNbpHlDxS1nG46DtAX-324" value="" style="shape=partialRectangle;collapsible=0;dropTarget=0;pointerEvents=0;fillColor=none;top=0;left=0;bottom=1;right=0;points=[[0,0.5],[1,0.5]];portConstraint=eastwest;" vertex="1" parent="uHUNbpHlDxS1nG46DtAX-323">
          <mxGeometry y="30" width="200" height="30" as="geometry" />
        </mxCell>
        <mxCell id="uHUNbpHlDxS1nG46DtAX-325" value="PK" style="shape=partialRectangle;connectable=0;fillColor=none;top=0;left=0;bottom=0;right=0;fontStyle=1;overflow=hidden;" vertex="1" parent="uHUNbpHlDxS1nG46DtAX-324">
          <mxGeometry width="30" height="30" as="geometry" />
        </mxCell>
        <mxCell id="uHUNbpHlDxS1nG46DtAX-326" value="roleID(int)" style="shape=partialRectangle;connectable=0;fillColor=none;top=0;left=0;bottom=0;right=0;align=left;spacingLeft=6;fontStyle=5;overflow=hidden;" vertex="1" parent="uHUNbpHlDxS1nG46DtAX-324">
          <mxGeometry x="30" width="170" height="30" as="geometry" />
        </mxCell>
        <mxCell id="uHUNbpHlDxS1nG46DtAX-327" value="" style="shape=partialRectangle;collapsible=0;dropTarget=0;pointerEvents=0;fillColor=none;top=0;left=0;bottom=0;right=0;points=[[0,0.5],[1,0.5]];portConstraint=eastwest;" vertex="1" parent="uHUNbpHlDxS1nG46DtAX-323">
          <mxGeometry y="60" width="200" height="30" as="geometry" />
        </mxCell>
        <mxCell id="uHUNbpHlDxS1nG46DtAX-328" value="" style="shape=partialRectangle;connectable=0;fillColor=none;top=0;left=0;bottom=0;right=0;editable=1;overflow=hidden;" vertex="1" parent="uHUNbpHlDxS1nG46DtAX-327">
          <mxGeometry width="30" height="30" as="geometry" />
        </mxCell>
        <mxCell id="uHUNbpHlDxS1nG46DtAX-329" value="RollName(nvarchar(15))" style="shape=partialRectangle;connectable=0;fillColor=none;top=0;left=0;bottom=0;right=0;align=left;spacingLeft=6;overflow=hidden;" vertex="1" parent="uHUNbpHlDxS1nG46DtAX-327">
          <mxGeometry x="30" width="170" height="30" as="geometry" />
        </mxCell>
        <mxCell id="uHUNbpHlDxS1nG46DtAX-369" value="" style="edgeStyle=entityRelationEdgeStyle;fontSize=12;html=1;endArrow=ERmany;exitX=0;exitY=0.5;exitDx=0;exitDy=0;strokeColor=none;" edge="1" parent="1" source="uHUNbpHlDxS1nG46DtAX-324" target="uHUNbpHlDxS1nG46DtAX-114">
          <mxGeometry width="100" height="100" relative="1" as="geometry">
            <mxPoint x="380" y="290" as="sourcePoint" />
            <mxPoint x="480" y="190" as="targetPoint" />
          </mxGeometry>
        </mxCell>
        <mxCell id="uHUNbpHlDxS1nG46DtAX-370" value="" style="edgeStyle=entityRelationEdgeStyle;fontSize=12;html=1;endArrow=classic;entryX=1.025;entryY=0.867;entryDx=0;entryDy=0;endFill=1;entryPerimeter=0;" edge="1" parent="1" target="uHUNbpHlDxS1nG46DtAX-324">
          <mxGeometry width="100" height="100" relative="1" as="geometry">
            <mxPoint x="600" y="480" as="sourcePoint" />
            <mxPoint x="480" y="190" as="targetPoint" />
          </mxGeometry>
        </mxCell>
        <mxCell id="uHUNbpHlDxS1nG46DtAX-371" value="Comments" style="shape=table;startSize=30;container=1;collapsible=1;childLayout=tableLayout;fixedRows=1;rowLines=0;fontStyle=1;align=center;resizeLast=1;" vertex="1" parent="1">
          <mxGeometry x="880" y="250" width="220" height="210" as="geometry" />
        </mxCell>
        <mxCell id="uHUNbpHlDxS1nG46DtAX-372" value="" style="shape=partialRectangle;collapsible=0;dropTarget=0;pointerEvents=0;fillColor=none;top=0;left=0;bottom=1;right=0;points=[[0,0.5],[1,0.5]];portConstraint=eastwest;" vertex="1" parent="uHUNbpHlDxS1nG46DtAX-371">
          <mxGeometry y="30" width="220" height="30" as="geometry" />
        </mxCell>
        <mxCell id="uHUNbpHlDxS1nG46DtAX-373" value="PK" style="shape=partialRectangle;connectable=0;fillColor=none;top=0;left=0;bottom=0;right=0;fontStyle=1;overflow=hidden;" vertex="1" parent="uHUNbpHlDxS1nG46DtAX-372">
          <mxGeometry width="30" height="30" as="geometry" />
        </mxCell>
        <mxCell id="uHUNbpHlDxS1nG46DtAX-374" value="CommentID" style="shape=partialRectangle;connectable=0;fillColor=none;top=0;left=0;bottom=0;right=0;align=left;spacingLeft=6;fontStyle=5;overflow=hidden;" vertex="1" parent="uHUNbpHlDxS1nG46DtAX-372">
          <mxGeometry x="30" width="190" height="30" as="geometry" />
        </mxCell>
        <mxCell id="uHUNbpHlDxS1nG46DtAX-375" value="" style="shape=partialRectangle;collapsible=0;dropTarget=0;pointerEvents=0;fillColor=none;top=0;left=0;bottom=0;right=0;points=[[0,0.5],[1,0.5]];portConstraint=eastwest;" vertex="1" parent="uHUNbpHlDxS1nG46DtAX-371">
          <mxGeometry y="60" width="220" height="30" as="geometry" />
        </mxCell>
        <mxCell id="uHUNbpHlDxS1nG46DtAX-376" value="" style="shape=partialRectangle;connectable=0;fillColor=none;top=0;left=0;bottom=0;right=0;editable=1;overflow=hidden;" vertex="1" parent="uHUNbpHlDxS1nG46DtAX-375">
          <mxGeometry width="30" height="30" as="geometry" />
        </mxCell>
        <mxCell id="uHUNbpHlDxS1nG46DtAX-377" value="commentDate(datetime)" style="shape=partialRectangle;connectable=0;fillColor=none;top=0;left=0;bottom=0;right=0;align=left;spacingLeft=6;overflow=hidden;" vertex="1" parent="uHUNbpHlDxS1nG46DtAX-375">
          <mxGeometry x="30" width="190" height="30" as="geometry" />
        </mxCell>
        <mxCell id="uHUNbpHlDxS1nG46DtAX-378" value="" style="shape=partialRectangle;collapsible=0;dropTarget=0;pointerEvents=0;fillColor=none;top=0;left=0;bottom=0;right=0;points=[[0,0.5],[1,0.5]];portConstraint=eastwest;" vertex="1" parent="uHUNbpHlDxS1nG46DtAX-371">
          <mxGeometry y="90" width="220" height="30" as="geometry" />
        </mxCell>
        <mxCell id="uHUNbpHlDxS1nG46DtAX-379" value="" style="shape=partialRectangle;connectable=0;fillColor=none;top=0;left=0;bottom=0;right=0;editable=1;overflow=hidden;" vertex="1" parent="uHUNbpHlDxS1nG46DtAX-378">
          <mxGeometry width="30" height="30" as="geometry" />
        </mxCell>
        <mxCell id="uHUNbpHlDxS1nG46DtAX-380" value="commentContect((text))" style="shape=partialRectangle;connectable=0;fillColor=none;top=0;left=0;bottom=0;right=0;align=left;spacingLeft=6;overflow=hidden;" vertex="1" parent="uHUNbpHlDxS1nG46DtAX-378">
          <mxGeometry x="30" width="190" height="30" as="geometry" />
        </mxCell>
        <mxCell id="uHUNbpHlDxS1nG46DtAX-381" value="" style="shape=partialRectangle;collapsible=0;dropTarget=0;pointerEvents=0;fillColor=none;top=0;left=0;bottom=0;right=0;points=[[0,0.5],[1,0.5]];portConstraint=eastwest;" vertex="1" parent="uHUNbpHlDxS1nG46DtAX-371">
          <mxGeometry y="120" width="220" height="30" as="geometry" />
        </mxCell>
        <mxCell id="uHUNbpHlDxS1nG46DtAX-382" value="" style="shape=partialRectangle;connectable=0;fillColor=none;top=0;left=0;bottom=0;right=0;editable=1;overflow=hidden;" vertex="1" parent="uHUNbpHlDxS1nG46DtAX-381">
          <mxGeometry width="30" height="30" as="geometry" />
        </mxCell>
        <mxCell id="uHUNbpHlDxS1nG46DtAX-383" value="lastName(nvarchar(15))" style="shape=partialRectangle;connectable=0;fillColor=none;top=0;left=0;bottom=0;right=0;align=left;spacingLeft=6;overflow=hidden;" vertex="1" parent="uHUNbpHlDxS1nG46DtAX-381">
          <mxGeometry x="30" width="190" height="30" as="geometry" />
        </mxCell>
        <mxCell id="uHUNbpHlDxS1nG46DtAX-408" value="" style="shape=partialRectangle;collapsible=0;dropTarget=0;pointerEvents=0;fillColor=none;top=0;left=0;bottom=0;right=0;points=[[0,0.5],[1,0.5]];portConstraint=eastwest;" vertex="1" parent="uHUNbpHlDxS1nG46DtAX-371">
          <mxGeometry y="150" width="220" height="30" as="geometry" />
        </mxCell>
        <mxCell id="uHUNbpHlDxS1nG46DtAX-409" value="FK" style="shape=partialRectangle;connectable=0;fillColor=none;top=0;left=0;bottom=0;right=0;editable=1;overflow=hidden;" vertex="1" parent="uHUNbpHlDxS1nG46DtAX-408">
          <mxGeometry width="30" height="30" as="geometry" />
        </mxCell>
        <mxCell id="uHUNbpHlDxS1nG46DtAX-410" value="postId(bit)" style="shape=partialRectangle;connectable=0;fillColor=none;top=0;left=0;bottom=0;right=0;align=left;spacingLeft=6;overflow=hidden;" vertex="1" parent="uHUNbpHlDxS1nG46DtAX-408">
          <mxGeometry x="30" width="190" height="30" as="geometry" />
        </mxCell>
        <mxCell id="uHUNbpHlDxS1nG46DtAX-411" value="" style="shape=partialRectangle;collapsible=0;dropTarget=0;pointerEvents=0;fillColor=none;top=0;left=0;bottom=0;right=0;points=[[0,0.5],[1,0.5]];portConstraint=eastwest;" vertex="1" parent="uHUNbpHlDxS1nG46DtAX-371">
          <mxGeometry y="180" width="220" height="30" as="geometry" />
        </mxCell>
        <mxCell id="uHUNbpHlDxS1nG46DtAX-412" value="FK" style="shape=partialRectangle;connectable=0;fillColor=none;top=0;left=0;bottom=0;right=0;editable=1;overflow=hidden;" vertex="1" parent="uHUNbpHlDxS1nG46DtAX-411">
          <mxGeometry width="30" height="30" as="geometry" />
        </mxCell>
        <mxCell id="uHUNbpHlDxS1nG46DtAX-413" value="UserID(int)" style="shape=partialRectangle;connectable=0;fillColor=none;top=0;left=0;bottom=0;right=0;align=left;spacingLeft=6;overflow=hidden;" vertex="1" parent="uHUNbpHlDxS1nG46DtAX-411">
          <mxGeometry x="30" width="190" height="30" as="geometry" />
        </mxCell>
        <mxCell id="uHUNbpHlDxS1nG46DtAX-417" value="" style="edgeStyle=entityRelationEdgeStyle;fontSize=12;html=1;endArrow=ERmany;entryX=0;entryY=0.5;entryDx=0;entryDy=0;exitX=1;exitY=0.5;exitDx=0;exitDy=0;" edge="1" parent="1" source="uHUNbpHlDxS1nG46DtAX-2" target="uHUNbpHlDxS1nG46DtAX-411">
          <mxGeometry width="100" height="100" relative="1" as="geometry">
            <mxPoint x="760" y="490" as="sourcePoint" />
            <mxPoint x="860" y="390" as="targetPoint" />
          </mxGeometry>
        </mxCell>
        <mxCell id="uHUNbpHlDxS1nG46DtAX-424" value="Posts" style="shape=table;startSize=30;container=1;collapsible=1;childLayout=tableLayout;fixedRows=1;rowLines=0;fontStyle=1;align=center;resizeLast=1;" vertex="1" parent="1">
          <mxGeometry x="900" y="510" width="220" height="240" as="geometry" />
        </mxCell>
        <mxCell id="uHUNbpHlDxS1nG46DtAX-425" value="" style="shape=partialRectangle;collapsible=0;dropTarget=0;pointerEvents=0;fillColor=none;top=0;left=0;bottom=1;right=0;points=[[0,0.5],[1,0.5]];portConstraint=eastwest;" vertex="1" parent="uHUNbpHlDxS1nG46DtAX-424">
          <mxGeometry y="30" width="220" height="30" as="geometry" />
        </mxCell>
        <mxCell id="uHUNbpHlDxS1nG46DtAX-426" value="PK" style="shape=partialRectangle;connectable=0;fillColor=none;top=0;left=0;bottom=0;right=0;fontStyle=1;overflow=hidden;" vertex="1" parent="uHUNbpHlDxS1nG46DtAX-425">
          <mxGeometry width="30" height="30" as="geometry" />
        </mxCell>
        <mxCell id="uHUNbpHlDxS1nG46DtAX-427" value="PostID" style="shape=partialRectangle;connectable=0;fillColor=none;top=0;left=0;bottom=0;right=0;align=left;spacingLeft=6;fontStyle=5;overflow=hidden;" vertex="1" parent="uHUNbpHlDxS1nG46DtAX-425">
          <mxGeometry x="30" width="190" height="30" as="geometry" />
        </mxCell>
        <mxCell id="uHUNbpHlDxS1nG46DtAX-428" value="" style="shape=partialRectangle;collapsible=0;dropTarget=0;pointerEvents=0;fillColor=none;top=0;left=0;bottom=0;right=0;points=[[0,0.5],[1,0.5]];portConstraint=eastwest;" vertex="1" parent="uHUNbpHlDxS1nG46DtAX-424">
          <mxGeometry y="60" width="220" height="30" as="geometry" />
        </mxCell>
        <mxCell id="uHUNbpHlDxS1nG46DtAX-429" value="" style="shape=partialRectangle;connectable=0;fillColor=none;top=0;left=0;bottom=0;right=0;editable=1;overflow=hidden;" vertex="1" parent="uHUNbpHlDxS1nG46DtAX-428">
          <mxGeometry width="30" height="30" as="geometry" />
        </mxCell>
        <mxCell id="uHUNbpHlDxS1nG46DtAX-430" value="postDate(datetime)" style="shape=partialRectangle;connectable=0;fillColor=none;top=0;left=0;bottom=0;right=0;align=left;spacingLeft=6;overflow=hidden;" vertex="1" parent="uHUNbpHlDxS1nG46DtAX-428">
          <mxGeometry x="30" width="190" height="30" as="geometry" />
        </mxCell>
        <mxCell id="uHUNbpHlDxS1nG46DtAX-434" value="" style="shape=partialRectangle;collapsible=0;dropTarget=0;pointerEvents=0;fillColor=none;top=0;left=0;bottom=0;right=0;points=[[0,0.5],[1,0.5]];portConstraint=eastwest;" vertex="1" parent="uHUNbpHlDxS1nG46DtAX-424">
          <mxGeometry y="90" width="220" height="30" as="geometry" />
        </mxCell>
        <mxCell id="uHUNbpHlDxS1nG46DtAX-435" value="" style="shape=partialRectangle;connectable=0;fillColor=none;top=0;left=0;bottom=0;right=0;editable=1;overflow=hidden;" vertex="1" parent="uHUNbpHlDxS1nG46DtAX-434">
          <mxGeometry width="30" height="30" as="geometry" />
        </mxCell>
        <mxCell id="uHUNbpHlDxS1nG46DtAX-436" value="postTitle(nvarchar(15))" style="shape=partialRectangle;connectable=0;fillColor=none;top=0;left=0;bottom=0;right=0;align=left;spacingLeft=6;overflow=hidden;" vertex="1" parent="uHUNbpHlDxS1nG46DtAX-434">
          <mxGeometry x="30" width="190" height="30" as="geometry" />
        </mxCell>
        <mxCell id="uHUNbpHlDxS1nG46DtAX-431" value="" style="shape=partialRectangle;collapsible=0;dropTarget=0;pointerEvents=0;fillColor=none;top=0;left=0;bottom=0;right=0;points=[[0,0.5],[1,0.5]];portConstraint=eastwest;" vertex="1" parent="uHUNbpHlDxS1nG46DtAX-424">
          <mxGeometry y="120" width="220" height="30" as="geometry" />
        </mxCell>
        <mxCell id="uHUNbpHlDxS1nG46DtAX-432" value="" style="shape=partialRectangle;connectable=0;fillColor=none;top=0;left=0;bottom=0;right=0;editable=1;overflow=hidden;" vertex="1" parent="uHUNbpHlDxS1nG46DtAX-431">
          <mxGeometry width="30" height="30" as="geometry" />
        </mxCell>
        <mxCell id="uHUNbpHlDxS1nG46DtAX-433" value="postContect((text))" style="shape=partialRectangle;connectable=0;fillColor=none;top=0;left=0;bottom=0;right=0;align=left;spacingLeft=6;overflow=hidden;" vertex="1" parent="uHUNbpHlDxS1nG46DtAX-431">
          <mxGeometry x="30" width="190" height="30" as="geometry" />
        </mxCell>
        <mxCell id="uHUNbpHlDxS1nG46DtAX-444" value="" style="shape=partialRectangle;collapsible=0;dropTarget=0;pointerEvents=0;fillColor=none;top=0;left=0;bottom=0;right=0;points=[[0,0.5],[1,0.5]];portConstraint=eastwest;" vertex="1" parent="uHUNbpHlDxS1nG46DtAX-424">
          <mxGeometry y="150" width="220" height="30" as="geometry" />
        </mxCell>
        <mxCell id="uHUNbpHlDxS1nG46DtAX-445" value="" style="shape=partialRectangle;connectable=0;fillColor=none;top=0;left=0;bottom=0;right=0;editable=1;overflow=hidden;" vertex="1" parent="uHUNbpHlDxS1nG46DtAX-444">
          <mxGeometry width="30" height="30" as="geometry" />
        </mxCell>
        <mxCell id="uHUNbpHlDxS1nG46DtAX-446" value="postImage((nvarchar(80)" style="shape=partialRectangle;connectable=0;fillColor=none;top=0;left=0;bottom=0;right=0;align=left;spacingLeft=6;overflow=hidden;" vertex="1" parent="uHUNbpHlDxS1nG46DtAX-444">
          <mxGeometry x="30" width="190" height="30" as="geometry" />
        </mxCell>
        <mxCell id="uHUNbpHlDxS1nG46DtAX-437" value="" style="shape=partialRectangle;collapsible=0;dropTarget=0;pointerEvents=0;fillColor=none;top=0;left=0;bottom=0;right=0;points=[[0,0.5],[1,0.5]];portConstraint=eastwest;" vertex="1" parent="uHUNbpHlDxS1nG46DtAX-424">
          <mxGeometry y="180" width="220" height="30" as="geometry" />
        </mxCell>
        <mxCell id="uHUNbpHlDxS1nG46DtAX-438" value="FK" style="shape=partialRectangle;connectable=0;fillColor=none;top=0;left=0;bottom=0;right=0;editable=1;overflow=hidden;" vertex="1" parent="uHUNbpHlDxS1nG46DtAX-437">
          <mxGeometry width="30" height="30" as="geometry" />
        </mxCell>
        <mxCell id="uHUNbpHlDxS1nG46DtAX-439" value="postId(bit)" style="shape=partialRectangle;connectable=0;fillColor=none;top=0;left=0;bottom=0;right=0;align=left;spacingLeft=6;overflow=hidden;" vertex="1" parent="uHUNbpHlDxS1nG46DtAX-437">
          <mxGeometry x="30" width="190" height="30" as="geometry" />
        </mxCell>
        <mxCell id="uHUNbpHlDxS1nG46DtAX-440" value="" style="shape=partialRectangle;collapsible=0;dropTarget=0;pointerEvents=0;fillColor=none;top=0;left=0;bottom=0;right=0;points=[[0,0.5],[1,0.5]];portConstraint=eastwest;" vertex="1" parent="uHUNbpHlDxS1nG46DtAX-424">
          <mxGeometry y="210" width="220" height="30" as="geometry" />
        </mxCell>
        <mxCell id="uHUNbpHlDxS1nG46DtAX-441" value="FK" style="shape=partialRectangle;connectable=0;fillColor=none;top=0;left=0;bottom=0;right=0;editable=1;overflow=hidden;" vertex="1" parent="uHUNbpHlDxS1nG46DtAX-440">
          <mxGeometry width="30" height="30" as="geometry" />
        </mxCell>
        <mxCell id="uHUNbpHlDxS1nG46DtAX-442" value="UserID(int)" style="shape=partialRectangle;connectable=0;fillColor=none;top=0;left=0;bottom=0;right=0;align=left;spacingLeft=6;overflow=hidden;" vertex="1" parent="uHUNbpHlDxS1nG46DtAX-440">
          <mxGeometry x="30" width="190" height="30" as="geometry" />
        </mxCell>
        <mxCell id="uHUNbpHlDxS1nG46DtAX-443" value="" style="edgeStyle=entityRelationEdgeStyle;fontSize=12;html=1;endArrow=ERoneToMany;entryX=1;entryY=0.5;entryDx=0;entryDy=0;" edge="1" parent="1" source="uHUNbpHlDxS1nG46DtAX-425" target="uHUNbpHlDxS1nG46DtAX-408">
          <mxGeometry width="100" height="100" relative="1" as="geometry">
            <mxPoint x="870" y="580" as="sourcePoint" />
            <mxPoint x="880" y="415" as="targetPoint" />
          </mxGeometry>
        </mxCell>
      </root>
    </mxGraphModel>
  </diagram>
</mxfile>
